# File created by Blade
# Date/Time:  Wed Apr 08 17:17:01 2015
# Frame Rate: 120.000 fps
#------------------------------------------------------
:FULLY-SPECIFIED
:DEGREES
1228
root 8.487504 37.580102 5.942848 177.941186 -36.297419 -152.078805
Spine 7.596551 -5.211531 -1.654994
Head -2.398761 2.563224 21.605240
LeftShoulder -6.971382 15.242061 19.926924
LeftArm 16.141623 31.971365 -73.370221
LeftForeArm 31.696014 -0.000000 26.338390
LeftHand -8.989291 0.000000 -21.939287
LeftHandThumb1 -26.253704 0.000000 33.147579
RightShoulder -43.811861 -50.068269 35.282788
RightArm 46.429460 -22.996374 62.701347
RightForeArm 24.532797 -0.000000 3.251158
RightHand -7.247956 0.000000 11.620473
RightHandThumb1 -24.326973 -0.000000 -32.862282
LeftUpLeg -27.796669 49.756563 -0.417305
LeftLeg 17.188636 -0.000000 -0.000000
LeftFoot -18.705282 -1.504459 -19.817524
LeftToeBase 12.154532 -0.000000 -0.000000
RightUpLeg 12.222146 -13.315100 -12.221091
RightLeg 138.871144 -0.000000 -0.000000
RightFoot 40.333959 6.933376 22.106120
RightToeBase 9.508109 -0.000000 -0.000000
1229
root 8.494743 37.573463 5.918736 177.947717 -36.243042 -152.085201
Spine 7.581628 -5.131020 -1.685340
Head -2.304835 2.643184 21.614398
LeftShoulder -6.997372 15.290488 19.910496
LeftArm 16.065405 32.009148 -73.427890
LeftForeArm 31.755903 -0.000000 26.221962
LeftHand -9.096570 -0.000000 -22.249500
LeftHandThumb1 -26.253704 0.000000 33.147579
RightShoulder -43.841153 -50.067913 35.334484
RightArm 46.480093 -23.101481 62.658687
RightForeArm 24.513711 -0.000000 3.166390
RightHand -7.336612 0.000000 11.634231
RightHandThumb1 -24.326973 -0.000000 -32.862282
LeftUpLeg -27.768673 49.818632 -0.380988
LeftLeg 17.178274 -0.000000 -0.000000
LeftFoot -18.771267 -1.441140 -19.752799
LeftToeBase 12.214278 -0.000000 -0.000000
RightUpLeg 12.300893 -13.356312 -12.201326
RightLeg 138.841928 -0.000000 -0.000000
RightFoot 40.336120 6.872055 22.129037
RightToeBase 9.459088 -0.000000 -0.000000
1230
root 8.498383 37.564749 5.894074 177.955393 -36.229271 -152.101255
Spine 7.556974 -5.105070 -1.713861
Head -2.200644 2.723527 21.624137
LeftShoulder -6.983306 15.276761 19.920252
LeftArm 15.856391 31.883286 -73.647256
LeftForeArm 31.820460 -0.000000 26.079041
LeftHand -9.039138 0.000000 -22.579186
LeftHandThumb1 -26.253704 0.000000 33.147579
RightShoulder -43.828357 -50.105541 35.340501
RightArm 46.503358 -23.229717 62.640347
RightForeArm 24.543395 -0.000000 3.089047
RightHand -7.304252 -0.000000 11.465695
RightHandThumb1 -24.326973 -0.000000 -32.862282
LeftUpLeg -27.730320 49.838791 -0.367035
LeftLeg 17.138407 -0.000000 -0.000000
LeftFoot -18.851600 -1.320359 -19.649870
LeftToeBase 12.297560 -0.000000 -0.000000
RightUpLeg 12.414365 -13.428728 -12.217350
RightLeg 138.784266 -0.000000 -0.000000
RightFoot 40.320086 6.762079 22.152812
RightToeBase 9.520300 -0.000000 -0.000000
1231
root 8.499993 37.554361 5.866992 177.954340 -36.274821 -152.127158
Spine 7.540021 -5.127273 -1.732052
Head -2.120496 2.792912 21.582741
LeftShoulder -7.069236 15.399880 19.828147
LeftArm 15.891550 32.110361 -73.501971
LeftForeArm 31.672329 -0.000000 26.126653
LeftHand -9.228064 0.000000 -22.682493
LeftHandThumb1 -26.253704 0.000000 33.147579
RightShoulder -43.829137 -50.143400 35.318210
RightArm 46.464591 -23.333845 62.709197
RightForeArm 24.534991 -0.000000 3.022714
RightHand -7.200689 0.000000 11.379063
RightHandThumb1 -24.326973 -0.000000 -32.862282
LeftUpLeg -27.675198 49.800594 -0.364347
LeftLeg 17.081086 -0.000000 -0.000000
LeftFoot -18.929361 -1.140130 -19.518688
LeftToeBase 12.477290 -0.000000 -0.000000
RightUpLeg 12.604231 -13.556316 -12.261748
RightLeg 138.687344 -0.000000 -0.000000
RightFoot 40.268989 6.592730 22.246227
RightToeBase 9.500390 -0.000000 -0.000000
1232
root 8.497159 37.541698 5.840226 177.956099 -36.385522 -152.166698
Spine 7.523586 -5.181218 -1.747198
Head -2.047438 2.835209 21.542048
LeftShoulder -7.103330 15.476674 19.774416
LeftArm 15.895495 32.278105 -73.440923
LeftForeArm 31.539369 -0.000000 26.096900
LeftHand -9.342333 -0.000000 -22.830869
LeftHandThumb1 -26.253704 0.000000 33.147579
RightShoulder -43.894237 -50.185675 35.356507
RightArm 46.439487 -23.445992 62.735864
RightForeArm 24.613654 -0.000000 2.963797
RightHand -7.142475 -0.000000 11.307008
RightHandThumb1 -24.326973 -0.000000 -32.862282
LeftUpLeg -27.622927 49.704055 -0.397239
LeftLeg 17.001285 -0.000000 -0.000000
LeftFoot -18.989881 -0.908777 -19.292916
LeftToeBase 12.801283 -0.000000 -0.000000
RightUpLeg 12.858183 -13.734252 -12.343946
RightLeg 138.545670 -0.000000 -0.000000
RightFoot 40.171484 6.413498 22.369854
RightToeBase 9.656180 -0.000000 -0.000000
